<svg xmlns="http://www.w3.org/2000/svg"  viewBox="0 0 48 48" width="48px" height="48px"><path fill="#c62828" d="M9.5,35H3.044C1.915,35,1,34.085,1,32.956V15.044C1,13.915,1.915,13,3.044,13H9.5V35z"/><path fill="#e0e0e0" d="M5.574,35C5.218,34.398,5,33.705,5,32.957V15.043C5,14.295,5.218,13.602,5.574,13H3.363	C3.132,13.639,3,14.325,3,15.043v17.913C3,33.675,3.132,34.361,3.363,35H5.574z"/><path fill="#e53935" d="M31,35H9.044C7.915,35,7,34.085,7,32.956V15.044C7,13.915,7.915,13,9.044,13H31V35z"/><path fill="#1e88e5" d="M44.875,13H31v22h13.875C46.048,35,47,34.085,47,32.956V15.044C47,13.915,46.048,13,44.875,13z"/></svg>